<svg id="Layer_1" data-name="Layer 1" xmlns="http://www.w3.org/2000/svg" viewBox="0 0 330 256"><defs><style>.cls-1{fill:#ff710e;stroke-linecap:round;stroke-linejoin:round;}.cls-1,.cls-2{stroke:#fff;}.cls-2{fill:#fbc600;}</style></defs><title>Artboard 18</title><path class="cls-1" d="M186.43,136.5,172,124.79l-4.81-18,6.67-17.36,15.6-10.13,18.57,1L222.47,92l4.81,18-6.67,17.36L205,137.48l-18.57-1"/><path class="cls-1" d="M189.41,79.33,175,67.62l-4.81-18,6.67-17.36,15.6-10.13,18.57,1,14.45,11.71,4.81,18-6.67,17.36L208,80.31l-18.57-1"/><path class="cls-1" d="M132.93,115.85l-14.45-11.71-4.81-18,6.67-17.36,15.6-10.13,18.57,1L169,71.37l4.81,18-6.67,17.36-15.6,10.13-18.57-1"/><path class="cls-1" d="M101.93,67.77,87.47,56.06l-4.81-18,6.67-17.36,15.6-10.13,18.57,1L138,23.29l4.81,18L136.1,58.63,120.5,68.75l-18.57-1"/><path class="cls-1" d="M77.68,130.75,63.23,119l-4.81-18L65.1,83.71,80.7,73.59l18.57,1,14.45,11.71,4.81,18-6.67,17.36-15.6,10.13-18.57-1"/><path class="cls-1" d="M24.2,110.23,9.75,98.52l-4.81-18,6.67-17.36,15.6-10.13,18.57,1L60.24,65.75l4.81,18-6.67,17.36-15.6,10.13-18.57-1"/><path class="cls-1" d="M217.15,184.81,202.7,173.1l-4.81-18,6.67-17.36,15.6-10.13,18.57,1,14.45,11.71,4.81,18-6.67,17.36-15.6,10.13-18.57-1"/><path class="cls-1" d="M150.5,181.11,136,169.4l-4.81-18,6.67-17.36,15.6-10.13,18.57,1,14.45,11.71,4.81,18L184.67,172l-15.6,10.13-18.57-1"/><path class="cls-1" d="M147.28,238.24l-14.45-11.71-4.81-18,6.67-17.36,15.6-10.13,18.57,1,14.45,11.71,4.81,18-6.67,17.36-15.6,10.13-18.57-1"/><path class="cls-1" d="M270.61,205.21,256.16,193.5l-4.81-18L258,158.16,273.62,148l18.57,1,14.45,11.71,4.81,18-6.67,17.36-15.6,10.13-18.57-1"/><path class="cls-1" d="M241.88,121.85l-14.45-11.71-4.81-18,6.67-17.36,15.6-10.13,18.57,1,14.45,11.71,4.81,18-6.67,17.36-15.6,10.13-18.57-1"/><path class="cls-1" d="M277.81,77.25,263.36,65.54l-4.81-18,6.67-17.36,15.6-10.13,18.57,1,14.45,11.71,4.81,18L312,68.1l-15.6,10.13-18.57-1"/><path class="cls-2" d="M146.06,43.26l8.31,16.35-18.32-1,10-15.37"/><path class="cls-2" d="M202.66,6.78,211,23.13l-18.32-1,10-15.37"/><path class="cls-2" d="M255.13,49.35l8.31,16.35-18.32-1,10-15.37"/><path class="cls-2" d="M295.79,82.25l-13,13-4.73-17.72,17.71,4.77"/><path class="cls-2" d="M270.9,145.21l-13,13-4.73-17.72,17.71,4.77"/><path class="cls-2" d="M238.59,124.83l-18.12,2.85,6.59-17.12,11.53,14.27"/><path class="cls-2" d="M323,193.14,304.88,196l6.59-17.12L323,193.14"/><path class="cls-2" d="M252.18,194.11l-16.34-8.35,15.4-10,.94,18.32"/><path class="cls-2" d="M185.34,190.52,169,182.18l15.4-10,.94,18.32"/><path class="cls-2" d="M225.11,73.61l-2.89,18.12L208,80.17l17.13-6.56"/><path class="cls-2" d="M155.83,254.55l-8.31-16.35,18.32,1-10,15.37"/><path class="cls-2" d="M194.84,152.89l-8.31-16.35,18.32,1-10,15.37"/><path class="cls-2" d="M115.71,122.45l2.89-18.12,14.24,11.56-17.13,6.56"/><path class="cls-2" d="M133.2,187.48l2.89-18.12,14.24,11.56-17.13,6.56"/><path class="cls-2" d="M154.13,119.8l13-13,4.73,17.72-17.71-4.77"/><path class="cls-2" d="M45.52,114.27l13-13L63.23,119l-17.71-4.77"/><path class="cls-2" d="M102.14,71.76l18.12-2.85L113.67,86,102.14,71.76"/><path class="cls-2" d="M88.5,2.33l16.34,8.35-15.4,10L88.5,2.33"/><path class="cls-2" d="M64.17,65.38,80.5,73.73l-15.4,10-.94-18.32"/><path class="cls-2" d="M172.62,70.13,189,78.47l-15.4,10-.94-18.32"/></svg>