<svg id="Layer_1" data-name="Layer 1" xmlns="http://www.w3.org/2000/svg" viewBox="0 0 330 188"><defs><style>.cls-1{fill:#0095ff;}.cls-1,.cls-2{stroke:#fff;stroke-linejoin:round;}.cls-2{fill:#fbc600;}</style></defs><title>cuboctahedron</title><rect id="rect4852" class="cls-1" x="112.99" y="79.5" width="56.35" height="56.35" transform="translate(32.2 247.84) rotate(-89.47)"/><rect id="rect5743" class="cls-1" x="46.68" y="40.4" width="56.35" height="56.35" transform="translate(-24.05 45.71) rotate(-29.47)"/><rect id="rect5745" class="cls-1" x="45.98" y="117.37" width="56.35" height="56.35" transform="translate(-88.89 135.49) rotate(-59.47)"/><rect id="rect5767" class="cls-1" x="180" y="41.63" width="56.35" height="56.35" transform="translate(42.31 213.67) rotate(-59.47)"/><rect id="rect5777" class="cls-1" x="256.97" y="42.33" width="56.35" height="56.35" transform="translate(2.21 149.42) rotate(-29.47)"/><rect id="rect5785" class="cls-1" x="217.87" y="108.64" width="56.35" height="56.35" transform="translate(106.98 381.59) rotate(-89.47)"/><path id="path5835" class="cls-2" d="M169.59,79.76l-28.17-.26-28.17-.26L127.56,55,141.87,30.7l13.86,24.53Z"/><path id="path5843" class="cls-2" d="M113.25,79.24,113,107.41l-.26,28.17L88.46,121.28,64.19,107,88.72,93.1Z"/><path id="path5847" class="cls-2" d="M169.6,79.76l-.26,28.17-.26,28.17,24.53-13.86,24.53-13.86L193.86,94.07Z"/><path id="path5859" class="cls-2" d="M274,165.25l.26-28.17.26-28.17,24.27,14.31L323,137.52l-24.53,13.86Z"/><path id="path5877" class="cls-2" d="M84.11,184.13l14.31-24.27,14.31-24.27,13.86,24.53,13.86,24.53-28.17-.26Z"/><path id="path5889" class="cls-2" d="M218.13,108.38l14.31-24.27,14.31-24.27,13.86,24.53,13.86,24.53-28.17-.26Z"/><path id="path5898" class="cls-2" d="M295.81,32.12,271.28,46,246.75,59.84,247,31.67l.26-28.17,24.27,14.31Z"/><path id="path5904" class="cls-2" d="M36.47,57.91,50.33,82.44,64.19,107,36,106.71l-28.17-.26L22.16,82.18Z"/></svg>