<svg id="Layer_1" data-name="Layer 1" xmlns="http://www.w3.org/2000/svg" viewBox="0 0 330 165"><defs><style>.cls-1{fill:#00a826;stroke:#fff;stroke-miterlimit:10;}</style></defs><title>dodecahedron</title><path id="path1878" class="cls-1" d="M263,63.83l12.23,37.64-32,23.26-32-23.26,12.23-37.64Z"/><path id="path2867" class="cls-1" d="M263,63.83l12.23-37.64-32-23.26-32,23.26,12.23,37.64Z"/><path id="path2877" class="cls-1" d="M275.19,101.47h39.58L327,63.83,295,40.57,263,63.83Z"/><path id="path2887" class="cls-1" d="M223.38,63.83l-32-23.26-32,23.26,12.23,37.64h39.58Z"/><path id="path2893" class="cls-1" d="M243.17,124.74l12.23,37.64H295l12.23-37.64-32-23.26Z"/><path id="path2899" class="cls-1" d="M243.17,124.74l-12.23,37.64H191.36l-12.23-37.64,32-23.26Z"/><path id="path2924" class="cls-1" d="M171.57,101.47l-32,23.26-32-23.26,12.23-37.64h39.58Z"/><path id="path2905" class="cls-1" d="M107.53,101.47H68L55.72,63.83l32-23.26,32,23.26Z"/><path id="path2940" class="cls-1" d="M119.76,63.83l32-23.26L139.55,2.93H100L87.74,40.57Z"/><path id="path2948" class="cls-1" d="M55.72,63.83l-32-23.26L35.93,2.93H75.51L87.74,40.57Z"/><path id="path2934" class="cls-1" d="M68,101.47,55.72,139.12l32,23.26,32-23.26-12.23-37.64Z"/><path id="path2930" class="cls-1" d="M68,101.47l-32,23.26-32-23.26L16.14,63.83H55.72Z"/></svg>