<svg id="Layer_1" data-name="Layer 1" xmlns="http://www.w3.org/2000/svg" viewBox="0 0 330 233"><defs><style>.cls-1{fill:#00a826;stroke-linecap:round;stroke-linejoin:round;}.cls-1,.cls-2{stroke:#fff;}.cls-2{fill:#fbc600;}</style></defs><title>icosidodecahedron</title><path class="cls-1" d="M254.81,198.24l-24.16,23.65-30-15.66,5.64-33.33L239.78,168Z"/><path class="cls-2" d="M251.9,2.91,246.58,36.3,220.33,15,251.9,2.91"/><path class="cls-2" d="M254.81,198.24l8.4,32.74-32.56-9.09,24.16-23.65"/><path class="cls-2" d="M187.76,201.24,172.44,171.1l33.76,1.8-18.44,28.34"/><path class="cls-1" d="M192.08,120.06l26.25,21.3L206.2,172.91l-33.76-1.8-8.72-32.66Z"/><path class="cls-2" d="M239.57,167.66l-33.39,5.26,12.14-31.55,21.25,26.29"/><path class="cls-2" d="M223.65,108l-5.32,33.38-26.25-21.3L223.65,108"/><path class="cls-1" d="M218.32,141.36,223.63,108,257,102.72l15.32,30.13-23.92,23.88Z"/><path class="cls-2" d="M272.38,132.86l-15.32-30.13,33.76,1.8-18.44,28.34"/><path class="cls-2" d="M248.45,156.75l23.92-23.88,8.72,32.66-32.65-8.78"/><path class="cls-1" d="M300.75,114.45,327,135.74l-12.14,31.55-33.76-1.8-8.72-32.66Z"/><path class="cls-2" d="M162,104.69l30.11,15.37-28.37,18.39L162,104.69"/><path class="cls-1" d="M162,104.69l5.32-33.38L200.69,66,216,96.18l-23.92,23.88Z"/><path class="cls-2" d="M216,96.18,200.68,66l33.76,1.8L216,96.18"/><path class="cls-2" d="M200.69,66.05l-33.39,5.26,12.14-31.55,21.25,26.29"/><path class="cls-1" d="M220.32,15l26.25,21.3L234.44,67.85l-33.76-1.8L192,33.4Z"/><path class="cls-1" d="M163.72,138.45l-31.57,12.09L110.9,124.25l18.44-28.34L162,104.69Z"/><path class="cls-2" d="M163.72,138.45l-5.32,33.38-26.25-21.3,31.57-12.09"/><path class="cls-2" d="M132.15,150.55l-33.39,5.26,12.14-31.55,21.25,26.29"/><path class="cls-1" d="M93.44,189.18l5.32-33.38,33.39-5.26,15.32,30.13-23.92,23.88Z"/><path class="cls-2" d="M93.44,189.18l30.11,15.37L95.19,222.94l-1.74-33.76"/><path class="cls-2" d="M110.9,124.25,95.58,94.12l33.76,1.8L110.9,124.25"/><path class="cls-1" d="M56.87,132.76l5.32-33.38,33.39-5.26,15.32,30.13L87,148.13Z"/><path class="cls-2" d="M62.17,99.39l-5.32,33.38L30.6,111.48,62.17,99.39"/><path class="cls-2" d="M56.87,132.76,87,148.13,58.62,166.52l-1.74-33.76"/><path class="cls-1" d="M30.6,111.48l26.25,21.3L44.71,164.33,11,162.53,2.23,129.87Z"/><path class="cls-2" d="M129.33,95.91,153.26,72,162,104.69l-32.65-8.78"/><path class="cls-1" d="M99.23,80.54l5.32-33.38,33.39-5.26L153.26,72,129.34,95.91Z"/><path class="cls-2" d="M137.94,41.9l-33.39,5.26,12.14-31.55L137.94,41.9"/><path class="cls-2" d="M104.53,47.17,99.21,80.55,73,59.26l31.57-12.09"/><path class="cls-1" d="M69,4.85l32.76,8.34L104,46.93,72.55,59.44,51,33.43Z"/><path class="cls-2" d="M35.24,3.5,69,4.85,51,33.43,35.24,3.5"/></svg>