<svg id="Layer_1" data-name="Layer 1" xmlns="http://www.w3.org/2000/svg" viewBox="0 0 330 147"><defs><style>.cls-1{fill:#fbc600;stroke:#fff;stroke-miterlimit:10;}</style></defs><title>icosahedron</title><path id="use3267" class="cls-1" d="M31.57,3.8,16.92,27.25,2.26,50.7l29.55-.13,29.55-.13L46.47,27.12Z"/><path id="use3269" class="cls-1" d="M32.06,97.35,46.71,73.9,61.37,50.45l-29.55.13L2.26,50.7,17.16,74Z"/><path id="use3271" class="cls-1" d="M61.37,50.45,46.71,73.9,32.06,97.35l29.55-.13,29.55-.13L76.27,73.77Z"/><path id="use3273" class="cls-1" d="M61.86,144l14.65-23.45L91.16,97.09l-29.55.13-29.55.13L47,120.68Z"/><path id="use3277" class="cls-1" d="M90.68,3.54,76,27,61.37,50.45l29.55-.13,29.55-.13-14.9-23.32Z"/><path id="use3279" class="cls-1" d="M91.16,97.09l14.65-23.45,14.65-23.45-29.55.13-29.55.13,14.9,23.32Z"/><path id="use3281" class="cls-1" d="M120.47,50.19,105.82,73.64,91.16,97.09,120.72,97l29.55-.13-14.9-23.32Z"/><path id="use3283" class="cls-1" d="M121,143.74l14.65-23.45,14.65-23.45L120.72,97l-29.55.13,14.9,23.32Z"/><path id="use3287" class="cls-1" d="M149.78,3.28,135.13,26.73,120.47,50.19,150,50.06l29.55-.13-14.9-23.32Z"/><path id="use3289" class="cls-1" d="M150.27,96.84l14.65-23.45,14.65-23.45L150,50.06l-29.55.13,14.9,23.32Z"/><path id="use3291" class="cls-1" d="M179.58,49.93,164.92,73.38,150.27,96.84l29.55-.13,29.55-.13-14.9-23.32Z"/><path id="use3293" class="cls-1" d="M180.07,143.48,194.72,120l14.65-23.45-29.55.13-29.55.13,14.9,23.32Z"/><path id="use3297" class="cls-1" d="M208.89,3,194.23,26.48,179.58,49.93l29.55-.13,29.55-.13-14.9-23.32Z"/><path id="use3299" class="cls-1" d="M209.37,96.58,224,73.13l14.65-23.45-29.55.13-29.55.13,14.9,23.32Z"/><path id="use3301" class="cls-1" d="M238.68,49.67,224,73.13,209.37,96.58l29.55-.13,29.55-.13L253.58,73Z"/><path id="use3303" class="cls-1" d="M239.17,143.23l14.65-23.45,14.65-23.45-29.55.13-29.55.13,14.9,23.32Z"/><path id="use3307" class="cls-1" d="M268,2.77,253.34,26.22,238.68,49.67l29.55-.13,29.55-.13-14.9-23.32Z"/><path id="use3309" class="cls-1" d="M268.48,96.32l14.65-23.45,14.65-23.45-29.55.13-29.55.13L253.58,73Z"/><path id="use3311" class="cls-1" d="M297.79,49.41,283.13,72.87,268.48,96.32,298,96.19l29.55-.13-14.9-23.32Z"/><path id="use3313" class="cls-1" d="M298.28,143l14.65-23.45,14.65-23.45L298,96.19l-29.55.13,14.9,23.32Z"/></svg>