<svg id="Layer_1" data-name="Layer 1" xmlns="http://www.w3.org/2000/svg" viewBox="0 0 330 240"><defs><style>.cls-1{fill:#0095ff;}.cls-1,.cls-2{stroke:#fff;}.cls-2{fill:#fbc600;}</style></defs><title>rhombicuboctahedron</title><rect class="cls-1" x="65.95" y="103.03" width="33.34" height="33.34"/><rect class="cls-1" x="132.63" y="103.03" width="33.34" height="33.34"/><rect class="cls-1" x="199.32" y="103.03" width="33.34" height="33.34"/><rect class="cls-1" x="266" y="103.03" width="33.34" height="33.34"/><rect class="cls-1" x="132.63" y="170.32" width="33.34" height="33.34"/><rect class="cls-1" x="132.63" y="36.34" width="33.34" height="33.34"/><rect class="cls-1" x="32" y="103.03" width="33.34" height="33.34"/><rect class="cls-1" x="98.68" y="103.03" width="33.34" height="33.34"/><rect class="cls-1" x="165.97" y="103.03" width="33.34" height="33.34"/><rect class="cls-1" x="232.66" y="103.03" width="33.34" height="33.34"/><rect class="cls-1" x="132.63" y="3" width="33.34" height="33.34"/><rect class="cls-1" x="132.63" y="136.97" width="33.34" height="33.34"/><rect class="cls-1" x="132.63" y="203.66" width="33.34" height="33.34"/><rect class="cls-1" x="132.63" y="69.68" width="33.34" height="33.34"/><rect class="cls-1" x="199.32" y="69.68" width="33.34" height="33.34"/><rect class="cls-1" x="99.29" y="36.34" width="33.34" height="33.34"/><rect class="cls-1" x="65.34" y="136.97" width="33.34" height="33.34"/><rect class="cls-1" x="188.95" y="142.97" width="32.86" height="32.86" transform="translate(-35.15 258.09) rotate(-60.12)"/><polygon class="cls-2" points="165.97 103.03 199.32 103.03 182.95 74.53 165.97 103.03"/><polygon class="cls-2" points="232.66 103.03 266 103.03 249.63 74.53 232.66 103.03"/><polygon class="cls-2" points="132.63 103.03 132.63 69.68 104.14 86.05 132.63 103.03"/><polygon class="cls-2" points="132.63 36.34 132.63 3 104.14 19.37 132.63 36.34"/><polygon class="cls-2" points="132.63 136.37 99.29 136.37 115.66 164.86 132.63 136.37"/><polygon class="cls-2" points="65.34 136.37 32 136.37 48.37 164.86 65.34 136.37"/><polygon class="cls-2" points="199.32 136.37 165.97 136.37 182.34 164.86 199.32 136.37"/><polygon class="cls-2" points="211.44 182.44 244.78 182.44 228.41 153.95 211.44 182.44"/></svg>