<svg id="Layer_1" data-name="Layer 1" xmlns="http://www.w3.org/2000/svg" viewBox="0 0 330 198"><defs><style>.cls-1{fill:#0095ff;}.cls-1,.cls-2,.cls-3{stroke:#fff;}.cls-2{fill:#fbc600;}.cls-3{fill:#00a826;}</style></defs><title>rhombicosidodecahedron</title><polygon class="cls-1" points="216.97 143.45 200.58 125.58 218.39 109.1 234.79 126.97 216.97 143.45"/><polygon class="cls-1" points="254.1 186.78 229.83 189.56 226.96 165.44 251.23 162.66 254.1 186.78"/><polygon class="cls-1" points="275.31 167.68 251.06 162.6 255.93 138.84 280.19 143.92 275.31 167.68"/><polygon class="cls-1" points="262.79 125.91 238.16 123.2 240.72 99.08 265.35 101.79 262.79 125.91"/><polygon class="cls-1" points="181.97 148.54 163.43 132.09 179.46 113.89 197.99 130.34 181.97 148.54 181.97 148.54"/><polygon class="cls-1" points="179.31 113.92 155.54 109.17 160.19 85.35 183.97 90.1 179.31 113.92"/><polygon class="cls-1" points="208.09 87.17 184.01 90.02 181.06 65.93 205.14 63.07 208.09 87.17 208.09 87.17"/><polygon class="cls-1" points="240.71 99.05 218.14 109.26 208.04 87.21 230.62 76.99 240.71 99.05 240.71 99.05"/><polygon class="cls-1" points="293.58 77.33 288.85 100.97 264.77 96.25 269.51 72.61 293.58 77.33 293.58 77.33"/><polygon class="cls-1" points="281.87 50.95 269.59 72.52 248.34 60.54 260.62 38.97 281.87 50.95"/><polygon class="cls-1" points="134.08 136.09 131.31 112.01 155.41 109.14 158.18 133.22 134.08 136.09"/><polygon class="cls-1" points="138.67 192.97 117.39 180.96 129.24 159.76 150.52 171.77 138.67 192.97"/><polygon class="cls-1" points="167.06 189.98 150.41 171.62 168.31 155.25 184.96 173.61 167.06 189.98 167.06 189.98"/><polygon class="cls-1" points="99.18 100.13 121.19 89.97 131.46 111.96 109.44 122.13 99.18 100.13"/><polygon class="cls-1" points="91.67 138.7 109.45 122.21 126.03 139.94 108.24 156.43 91.67 138.7"/><polygon class="cls-1" points="46.59 122.27 51.35 98.31 75.19 102.93 70.44 126.9 46.59 122.27"/><polygon class="cls-1" points="58.31 148.3 70.54 126.75 91.68 138.63 79.45 160.19 58.31 148.3"/><polygon class="cls-1" points="28.36 196.98 18.27 175.08 40.51 164.72 50.6 186.62 28.36 196.98 28.36 196.98"/><polygon class="cls-1" points="172.04 64.16 160.18 85.3 138.96 73.52 150.82 52.37 172.04 64.16 172.04 64.16"/><polygon class="cls-1" points="188.49 27.92 170.72 44.42 154.13 26.7 171.9 10.2 188.49 27.92"/><polygon class="cls-1" points="233.58 44.32 228.84 68.28 205 63.67 209.73 39.7 233.58 44.32"/><polygon class="cls-1" points="221.84 18.29 209.63 39.85 188.48 27.98 200.69 6.42 221.84 18.29"/><polygon class="cls-1" points="316.54 52.62 298.81 68.96 282.11 50.98 299.84 34.65 316.54 52.62"/><polygon class="cls-1" points="322.57 24.4 299.96 34.62 289.81 12.44 312.42 2.21 322.57 24.4"/><polygon class="cls-1" points="122.54 55.59 139.01 73.39 121.26 89.95 104.79 72.15 122.54 55.59"/><polygon class="cls-1" points="83.54 60.37 104.71 72.19 92.97 93.43 71.8 81.61 83.54 60.37"/><polygon class="cls-1" points="85.24 12.42 109.5 9.54 112.46 33.64 88.2 36.53 85.24 12.42"/><polygon class="cls-1" points="64.1 31.61 88.38 36.58 83.6 60.36 59.33 55.38 64.1 31.61"/><polygon class="cls-1" points="8.54 18.16 26.25 1.8 42.97 19.75 25.26 36.11 8.54 18.16"/><polygon class="cls-1" points="2.55 46.39 25.15 36.13 35.32 58.31 12.72 68.57 2.55 46.39"/><polygon class="cls-2" points="254.23 186.69 251.21 162.73 273.48 172.09 254.23 186.69 254.23 186.69"/><polygon class="cls-2" points="284.87 116.06 262.79 125.85 265.35 101.84 284.87 116.06"/><polygon class="cls-2" points="237.96 123.28 218.41 109.11 240.46 99.26 237.96 123.28 237.96 123.28"/><polygon class="cls-2" points="205.66 153.27 181.99 148.5 197.96 130.38 205.66 153.27 205.66 153.27"/><polygon class="cls-2" points="163.22 132.04 155.45 109.17 179.14 113.89 163.22 132.04"/><polygon class="cls-2" points="160.15 85.34 175.99 67.11 183.85 89.94 160.15 85.34"/><polygon class="cls-2" points="208.16 87.26 205.26 63.09 227.64 72.66 208.16 87.26"/><polygon class="cls-2" points="269.65 72.39 281.78 50.94 294.28 72.19 269.65 72.39 269.65 72.39"/><polygon class="cls-2" points="138.82 192.98 150.45 171.81 162.97 192.47 138.82 192.98 138.82 192.98"/><polygon class="cls-2" points="131.49 111.94 129.42 136 109.62 122.17 131.49 111.94"/><polygon class="cls-2" points="91.47 138.68 108.12 156.44 84.41 161.98 91.47 138.68 91.47 138.68"/><polygon class="cls-2" points="46.63 122.41 70.37 126.84 54.66 145.19 46.63 122.41"/><polygon class="cls-2" points="138.94 73.55 126.5 52.86 150.64 52.43 138.94 73.55 138.94 73.55"/><polygon class="cls-2" points="188.74 27.74 176.3 6.82 200.64 6.51 188.74 27.74 188.74 27.74 188.74 27.74"/><polygon class="cls-2" points="233.54 44.17 209.79 39.75 225.49 21.39 233.54 44.17"/><polygon class="cls-2" points="299.99 34.83 323.73 29.42 316.54 52.68 299.99 34.83 299.99 34.83"/><polygon class="cls-2" points="121.28 89.98 97.75 95.45 104.79 72.34 121.28 89.99 121.28 89.98"/><polygon class="cls-2" points="83.28 60.19 67.21 78.47 59.41 55.41 83.28 60.19 83.28 60.19"/><polygon class="cls-2" points="85.09 12.51 88.22 36.46 65.91 27.19 85.09 12.51 85.09 12.51"/><polygon class="cls-2" points="24.81 36.22 2.6 46.19 5.06 21.97 24.81 36.22"/><polygon class="cls-3" points="289.05 101 293.74 77.22 317.82 74.35 328 96.34 310.22 112.81 289.05 101 289.05 101"/><polygon class="cls-3" points="217 143.35 234.82 126.93 255.95 138.81 253.56 151 251.19 162.58 227.12 165.38 217 143.35 217 143.35 217 143.35"/><polygon class="cls-3" points="179.27 113.82 183.97 90.05 208.04 87.17 218.23 109.16 200.44 125.63 179.27 113.82 179.27 113.82"/><polygon class="cls-3" points="230.59 76.92 248.42 60.51 269.55 72.4 264.78 96.17 240.7 98.96 230.59 76.92 230.59 76.92 230.59 76.92"/><polygon class="cls-3" points="134.16 136.03 158.22 133.21 168.34 155.24 150.53 171.68 129.4 159.8 134.16 136.03 134.16 136.03 134.16 136.03"/><polygon class="cls-3" points="99.27 100.18 109.47 122.16 91.7 138.66 70.52 126.88 75.2 103.1 99.27 100.18 99.27 100.18"/><polygon class="cls-3" points="79.51 160.22 74.76 183.98 50.68 186.81 40.55 164.79 58.36 148.36 79.51 160.22 79.51 160.22"/><polygon class="cls-3" points="180.91 66.44 170.7 44.47 188.45 27.95 209.64 39.72 204.98 63.51 180.91 66.44 180.91 66.44 180.91 66.44"/><polygon class="cls-3" points="265.82 15.25 289.89 12.46 299.99 34.5 282.16 50.92 261.04 39.02 265.82 15.25 265.82 15.25 265.82 15.25"/><polygon class="cls-3" points="155.52 109.05 131.47 111.94 121.28 89.93 139.04 73.44 160.21 85.26 155.52 109.05 155.52 109.05 155.52 109.05"/><polygon class="cls-3" points="122.51 55.7 104.75 72.19 83.57 60.39 88.24 36.61 112.3 33.71 122.51 55.7 122.51 55.7 122.51 55.7"/><polygon class="cls-3" points="59.3 55.46 35.24 58.28 25.11 36.26 42.92 19.81 64.05 31.68 59.3 55.46 59.3 55.46 59.3 55.46"/></svg>