<svg id="Layer_1" data-name="Layer 1" xmlns="http://www.w3.org/2000/svg" viewBox="0 0 330 174"><defs><style>.cls-1{fill:#fbc600;}.cls-1,.cls-2{stroke:#fff;}.cls-2{fill:#00a826;stroke-linecap:round;stroke-linejoin:round;}</style></defs><title>snub-dodecahedron</title><path id="path3824" class="cls-1" d="M78.4,131.85,82.55,109l17.68,15Z"/><path id="path3826" class="cls-1" d="M100.23,124l4.14-22.81,17.68,15Z"/><path id="path3828" class="cls-1" d="M100.23,124,82.55,109l21.82-7.82Z"/><path id="path3830" class="cls-2" d="M81.43,71.55,68.37,90.7,82.55,109l21.82-7.82-.69-23.17Z"/><path id="path3804" class="cls-1" d="M71.38,50.66,81.43,71.55,58.32,69.81Z"/><path id="path3806" class="cls-1" d="M58.32,69.81,68.37,90.7,45.25,89Z"/><path id="path3808" class="cls-1" d="M58.32,69.81l23.12,1.74L68.37,90.7Z"/><path id="path3834" class="cls-1" d="M124.78,112.21l-20.41-11L124.1,89Z"/><path id="path3836" class="cls-1" d="M124.1,89l-20.41-11,19.72-12.18Z"/><path id="path3838" class="cls-1" d="M124.1,89l-19.72,12.18-.69-23.17Z"/><path id="path3780" class="cls-1" d="M120.44,62l-16.76,16L98.19,55.53Z"/><path id="path3782" class="cls-1" d="M98.19,55.53l-16.76,16L75.94,49Z"/><path id="path3784" class="cls-1" d="M98.19,55.53l5.49,22.52-22.25-6.5Z"/><path id="path3814" class="cls-1" d="M45.4,93.81l23-3.11-8.8,21.45Z"/><path id="path3816" class="cls-1" d="M59.57,112.15l23-3.11-8.8,21.45Z"/><path id="path3818" class="cls-1" d="M59.57,112.15l8.8-21.45L82.55,109Z"/><path id="path3999" class="cls-1" d="M146.29,155.45l-23.12-1.74,13.06-19.15Z"/><path id="path4001" class="cls-2" d="M100.23,124l.69,23.17,22.25,6.5,13.06-19.15-14.18-18.34Z"/><path id="path4025" class="cls-1" d="M106.41,169.73l-5.49-22.52,22.25,6.5Z"/><path id="path4007" class="cls-1" d="M80.51,136.22,100.23,124l.69,23.17Z"/><path id="path4104" class="cls-1" d="M81.2,159.39l19.72-12.18-20.41-11Z"/><path id="path4112" class="cls-1" d="M81.2,159.39l20.41,11-.69-23.17Z"/><path id="path4173" class="cls-2" d="M38.44,143.14,37.75,120l21.82-7.82,14.18,18.34L60.69,149.64Z"/><path id="path4179" class="cls-1" d="M18,132.15l20.41,11L37.75,120Z"/><path id="path4191" class="cls-1" d="M43.93,165.66l16.76-16-22.25-6.5Z"/><path id="path4193" class="cls-1" d="M20.07,105l17.68,15,4.14-22.81Z"/><path id="path4197" class="cls-1" d="M41.89,97.16,37.75,120l21.82-7.82Z"/><path id="path4243" class="cls-1" d="M20.07,105l-4.14,22.81L37.75,120Z"/><path id="path4255" class="cls-1" d="M52.93,30l-8.8,21.45,23-3.11Z"/><path id="path4259" class="cls-1" d="M67.11,48.36l-23,3.11L58.32,69.81Z"/><path id="path4261" class="cls-2" d="M23,82.46l-.69-23.17,21.82-7.82L58.32,69.81,45.25,89Z"/><path id="path4267" class="cls-1" d="M2.59,71.47,23,82.46l-.69-23.17Z"/><path id="path4285" class="cls-1" d="M26.46,36.48,22.31,59.29l21.82-7.82Z"/><path id="path4307" class="cls-1" d="M52.93,30,30,33.13,44.14,51.47Z"/><path id="path4450" class="cls-1" d="M120,14.93,97.08,18l14.18,18.34Z"/><path id="path4452" class="cls-2" d="M75.94,49l-.69-23.17L97.08,18l14.18,18.34L98.19,55.53Z"/><path id="path4476" class="cls-1" d="M79.39,3,75.25,25.85,97.08,18Z"/><path id="path4666" class="cls-1" d="M134.37,38.12l-23.12-1.74,10.05,20.89Z"/><path id="path4668" class="cls-1" d="M134.37,38.12,124.32,17.23,111.25,36.38Z"/><path id="path4674" class="cls-1" d="M121.31,57.27,111.25,36.38,98.19,55.53Z"/><path id="path4716" class="cls-1" d="M129.59,111.56,124.1,89l22.25,6.5Z"/><path id="path4722" class="cls-1" d="M151.84,118.07l-5.49-22.52-16.76,16Z"/><path id="path4498" class="cls-1" d="M169.46,97.28l-23.12-1.74,10.05,20.89Z"/><path id="path4712" class="cls-1" d="M168.2,54.95l-8.8,21.45L145.23,58.05Z"/><path id="path4714" class="cls-2" d="M124.1,89l22.25,6.5L159.41,76.4,145.23,58.05l-21.82,7.82Z"/><path id="path4720" class="cls-1" d="M169.46,97.28l-23.12-1.74L159.41,76.4Z"/><path id="path2039" class="cls-1" d="M250.47,41.83l-4.14,22.81-17.68-15Z"/><path id="path2041" class="cls-1" d="M228.64,49.65,224.5,72.45l-17.68-15Z"/><path id="path2043" class="cls-1" d="M228.64,49.65l17.68,15L224.5,72.45Z"/><path id="path2045" class="cls-2" d="M247.44,102.13,260.5,83,246.32,64.64,224.5,72.45l.69,23.17Z"/><path id="path2047" class="cls-1" d="M257.49,123l-10.05-20.89,23.12,1.74Z"/><path id="path2049" class="cls-1" d="M270.56,103.87,260.5,83l23.12,1.74Z"/><path id="path2051" class="cls-1" d="M270.56,103.87l-23.12-1.74L260.5,83Z"/><path id="path2053" class="cls-1" d="M204.09,61.47l20.41,11L204.78,84.64Z"/><path id="path2055" class="cls-1" d="M204.78,84.64l20.41,11-19.72,12.18Z"/><path id="path2057" class="cls-1" d="M204.78,84.64,224.5,72.46l.69,23.17Z"/><path id="path2059" class="cls-1" d="M208.43,111.64l16.76-16,5.49,22.52Z"/><path id="path2061" class="cls-1" d="M230.68,118.15l16.76-16,5.49,22.52Z"/><path id="path2063" class="cls-1" d="M230.68,118.15l-5.49-22.52,22.25,6.5Z"/><path id="path2065" class="cls-1" d="M283.48,79.87,260.5,83l8.8-21.45Z"/><path id="path2067" class="cls-1" d="M269.3,61.53l-23,3.11,8.8-21.45Z"/><path id="path2069" class="cls-1" d="M269.3,61.53,260.5,83,246.33,64.64Z"/><path id="path2071" class="cls-1" d="M182.59,18.23,205.7,20,192.64,39.12Z"/><path id="path2073" class="cls-2" d="M228.64,49.65,228,26.47,205.7,20,192.64,39.12l14.18,18.34Z"/><path id="path2075" class="cls-1" d="M222.46,4,228,26.47,205.7,20Z"/><path id="path2077" class="cls-1" d="M248.37,37.46,228.64,49.65,228,26.47Z"/><path id="path2079" class="cls-1" d="M247.68,14.29,228,26.47l20.41,11Z"/><path id="path2081" class="cls-1" d="M247.68,14.29l-20.41-11L228,26.47Z"/><path id="path2083" class="cls-2" d="M290.43,30.54l.69,23.17L269.3,61.53,255.12,43.19,268.18,24Z"/><path id="path2085" class="cls-1" d="M310.85,41.53l-20.41-11,.69,23.17Z"/><path id="path2087" class="cls-1" d="M284.94,8,268.18,24l22.25,6.5Z"/><path id="path2089" class="cls-1" d="M308.8,68.71l-17.68-15L287,76.52Z"/><path id="path2091" class="cls-1" d="M287,76.52l4.14-22.81L269.3,61.53Z"/><path id="path2093" class="cls-1" d="M308.8,68.71l4.14-22.81-21.82,7.82Z"/><path id="path2095" class="cls-1" d="M275.94,143.66l8.8-21.45-23,3.11Z"/><path id="path2097" class="cls-1" d="M261.76,125.32l23-3.11-14.18-18.34Z"/><path id="path2099" class="cls-2" d="M305.87,91.22l.69,23.17-21.82,7.82-14.18-18.34,13.06-19.15Z"/><path id="path2103" class="cls-1" d="M326.28,102.21l-20.41-11,.69,23.17Z"/><path id="path2105" class="cls-1" d="M302.42,137.2l4.14-22.81-21.82,7.82Z"/><path id="path2107" class="cls-1" d="M275.94,143.66l23-3.11-14.18-18.34Z"/><path id="path2109" class="cls-1" d="M208.82,158.75l23-3.11L217.62,137.3Z"/><path id="path2111" class="cls-2" d="M252.93,124.65l.69,23.17-21.82,7.82L217.62,137.3l13.06-19.15Z"/><path id="path2113" class="cls-1" d="M249.48,170.63l4.14-22.81-21.82,7.82Z"/><path id="path2115" class="cls-1" d="M194.5,135.56l23.12,1.74-10.05-20.89Z"/><path id="path2117" class="cls-1" d="M194.5,135.56l10.05,20.89,13.06-19.15Z"/><path id="path2119" class="cls-1" d="M207.56,116.41l10.05,20.89,13.06-19.15Z"/><path id="path2121" class="cls-1" d="M199.29,62.12l5.49,22.52-22.25-6.5Z"/><path id="path2123" class="cls-1" d="M177,55.61l5.49,22.52,16.76-16Z"/><path id="path2125" class="cls-1" d="M159.41,76.4l23.12,1.74L172.47,57.24Z"/><path id="path2127" class="cls-1" d="M160.67,118.73l8.8-21.45,14.18,18.34Z"/><path id="path2129" class="cls-2" d="M204.78,84.64l-22.25-6.5L169.46,97.28l14.18,18.34,21.82-7.82Z"/><path id="path2131" class="cls-1" d="M159.41,76.4l23.12,1.74L169.46,97.28Z"/></svg>