<svg id="Layer_1" data-name="Layer 1" xmlns="http://www.w3.org/2000/svg" viewBox="0 0 330 240"><defs><style>.cls-1,.cls-2{fill:#0095ff;}.cls-1,.cls-2,.cls-3{stroke:#fff;}.cls-1{stroke-linecap:round;stroke-linejoin:round;}.cls-3{fill:#fbc600;}</style></defs><title>snub-cube</title><path class="cls-1" d="M52.95,93.15,40.62,127l33.88,12.33,12.33-33.88Z"/><path class="cls-1" d="M122.33,99.25,110,133.12l33.88,12.33,12.33-33.88Z"/><path class="cls-2" d="M191.71,105.3l-12.33,33.88,33.88,12.33,12.33-33.88Z"/><path class="cls-1" d="M261.09,111.36l-12.33,33.88,33.88,12.33L295,123.69Z"/><path class="cls-1" d="M128.4,29.85,116.07,63.72l33.88,12.33,12.33-33.88Z"/><path class="cls-1" d="M116.26,168.61l-12.33,33.88,33.88,12.33,12.33-33.88Z"/><path class="cls-3" d="M52.95,93.15,80.56,70l6.26,35.5L52.95,93.15"/><path class="cls-3" d="M86.82,105.48,110,133.1l-35.5,6.26,12.33-33.88"/><path class="cls-3" d="M122.33,99.25l27.62-23.17,6.26,35.5L122.33,99.25"/><path class="cls-3" d="M122.33,99.25,110,133.12,86.82,105.51l35.5-6.26"/><path class="cls-3" d="M143.87,145.43,116.26,168.6,110,133.1l33.88,12.33"/><path class="cls-3" d="M191.71,105.3l27.62-23.17,6.26,35.5L191.71,105.3"/><path class="cls-3" d="M282.64,157.58,255,180.75l-6.26-35.5,33.88,12.33"/><path class="cls-3" d="M261.09,111.36l27.62-23.17,6.26,35.5-33.88-12.33"/><path class="cls-3" d="M213.26,151.52l-27.62,23.17-6.26-35.5,33.88,12.33"/><path class="cls-3" d="M52.95,93.15,40.62,127,17.44,99.41l35.5-6.26"/><path class="cls-3" d="M191.71,105.3l-12.33,33.88L156.2,111.56l35.5-6.26"/><path class="cls-3" d="M261.09,111.36l-12.33,33.88-23.17-27.62,35.5-6.26"/><path class="cls-3" d="M74.49,139.37,46.88,162.54,40.62,127l33.88,12.33"/><path class="cls-3" d="M156.2,111.58l23.17,27.62-35.5,6.26,12.33-33.88"/><path class="cls-3" d="M225.59,117.63l23.17,27.62-35.5,6.26,12.33-33.88"/><path class="cls-3" d="M295,123.69l23.17,27.62-35.5,6.26L295,123.69"/><path class="cls-3" d="M149.95,76.06,122.33,99.24l-6.26-35.5,33.88,12.33"/><path class="cls-3" d="M128.4,29.85,156,6.67l6.26,35.5L128.4,29.85"/><path class="cls-3" d="M128.4,29.85,116.07,63.72,92.89,36.11l35.5-6.26"/><path class="cls-3" d="M162.28,42.18l23.17,27.62-35.5,6.26,12.33-33.88"/><path class="cls-3" d="M137.8,214.83,110.19,238l-6.26-35.5,33.88,12.33"/><path class="cls-3" d="M116.26,168.61l27.62-23.17,6.26,35.5-33.88-12.33"/><path class="cls-3" d="M116.26,168.61l-12.33,33.88L80.76,174.87l35.5-6.26"/><path class="cls-3" d="M150.14,180.94l23.17,27.62-35.5,6.26,12.33-33.88"/><path class="cls-3" d="M116.26,168.61,82.38,156.28,110,133.11l6.26,35.5"/><path class="cls-3" d="M46.88,162.55,13,150.22,40.62,127l6.26,35.5"/><path class="cls-3" d="M179.38,139.19,167,173.07l-23.17-27.62,35.5-6.26"/><path class="cls-3" d="M248.76,145.25l-12.33,33.88-23.17-27.62,35.5-6.26"/><path class="cls-3" d="M128.4,29.85l-35.5,6.26L105.22,2.23,128.4,29.85"/><path class="cls-3" d="M122.33,99.25l-35.5,6.26L99.15,71.63l23.17,27.62"/><path class="cls-3" d="M183.82,88.39l-27.62,23.17-6.26-35.5,33.88,12.33"/><path class="cls-3" d="M253.2,94.45l-27.62,23.17-6.26-35.5L253.2,94.45"/></svg>