<svg id="Layer_1" data-name="Layer 1" xmlns="http://www.w3.org/2000/svg" viewBox="0 0 330 232"><defs><style>.cls-1{fill:#fbc600;}.cls-1,.cls-2{stroke:#fff;stroke-miterlimit:10;}.cls-2{fill:#ce001c;}</style></defs><title>truncated-tetrahedron</title><path id="path2888" class="cls-1" d="M98.63,93.79l26.19,45.37L151,93.79Z"/><path id="path2886" class="cls-1" d="M203.48,93.79l26.22,45.37,26.19-45.37Z"/><path id="path2871" class="cls-1" d="M151,184.59,177.26,230l26.22-45.4Z"/><path id="use2834" class="cls-2" d="M72.41,139.2h52.42L151,184.6,124.84,230H72.41L46.2,184.6Z"/><path id="use2836" class="cls-2" d="M151,3h52.42l26.21,45.4L203.47,93.8H151L124.84,48.4Z"/><path id="use2838" class="cls-2" d="M151,93.8h52.42l26.21,45.4-26.21,45.4H151l-26.21-45.4Z"/><path id="use2844" class="cls-2" d="M229.68,139.2h52.42l26.21,45.4L282.11,230H229.68l-26.21-45.4Z"/><path id="path2894" class="cls-1" d="M20,230l26.19-45.37L72.41,230Z"/></svg>