<svg id="Layer_1" data-name="Layer 1" xmlns="http://www.w3.org/2000/svg" viewBox="0 0 330 243"><defs><style>.cls-1{fill:#8600a9;}.cls-1,.cls-2{stroke:#fff;stroke-linecap:square;}.cls-2{fill:#fbc600;}</style></defs><title>truncated-cube</title><path id="path2826" class="cls-1" d="M90.34,105.76l23-23.14L146,82.53l23.14,23,.09,32.64-23,23.14-32.64.09-23.14-23Z"/><path id="path2828" class="cls-1" d="M90.34,26.87l23-23.14L146,3.64l23.14,23,.09,32.64-23,23.14-32.64.09-23.14-23Z"/><path id="path2830" class="cls-1" d="M90.34,184.64l23-23.14,32.64-.09,23.14,23,.09,32.64-23,23.14-32.64.09-23.14-23Z"/><path id="path2832" class="cls-1" d="M11.46,105.76l23-23.14,32.64-.09,23.14,23,.09,32.64-23,23.14-32.64.09-23.14-23Z"/><path id="path2834" class="cls-1" d="M248.11,105.76l23-23.14,32.64-.09,23.14,23,.09,32.64-23,23.14-32.64.09-23.14-23Z"/><path id="path2836" class="cls-1" d="M169.23,105.76l23-23.14,32.64-.09,23.14,23,.09,32.64-23,23.14-32.64.09-23.14-23Z"/><path id="path2838" class="cls-2" d="M239.66,74.07l15.78,4.23,15.78,4.23L259.67,94.08l-11.55,11.55-4.23-15.78Z"/><path id="path2840" class="cls-2" d="M239.66,169.87l15.78-4.23,15.78-4.23-11.55-11.55-11.55-11.55-4.23,15.78Z"/><path id="path3857" class="cls-2" d="M160.77,74.07l15.78,4.23,15.78,4.23L180.78,94.08l-11.55,11.55L165,89.85Z"/><path id="path3859" class="cls-2" d="M160.77,169.87l15.78-4.23,15.78-4.23-11.55-11.55-11.55-11.55L165,154.09Z"/><path id="path3861" class="cls-2" d="M81.89,74.07,97.67,78.3l15.78,4.23L101.9,94.08,90.34,105.63,86.11,89.85Z"/><path id="path3863" class="cls-2" d="M81.89,169.87l15.78-4.23,15.78-4.23L101.9,149.86,90.34,138.31l-4.23,15.78Z"/><path id="path3865" class="cls-2" d="M3,74.07,18.78,78.3l15.78,4.23L23,94.08,11.46,105.63,7.23,89.85Z"/><path id="path3867" class="cls-2" d="M3,169.87l15.78-4.23,15.78-4.23L23,149.86,11.46,138.31,7.23,154.09Z"/></svg>