<svg id="Layer_1" data-name="Layer 1" xmlns="http://www.w3.org/2000/svg" viewBox="0 0 330 218"><defs><style>.cls-1{fill:#0095ff;}.cls-1,.cls-2,.cls-3{stroke:#fff;stroke-linecap:round;stroke-linejoin:round;}.cls-2{fill:#8600a9;}.cls-3{fill:#ce001c;}</style></defs><title>truncated-cuboctahedron</title><rect id="rect1933" class="cls-1" x="13.99" y="97.26" width="22.99" height="22.99"/><path id="path1941" class="cls-2" d="M53,81.2,76,81,92.3,97.06,92.5,120,76.44,136.31l-22.91.2L37.19,120.45,37,97.54Z"/><rect id="rect1943" class="cls-1" x="53.24" y="58.01" width="22.99" height="22.99"/><rect id="rect1945" class="cls-1" x="53.24" y="136.51" width="22.99" height="22.99"/><path id="path1935" class="cls-3" d="M37,120.25l11.5,19.91L37,160.08H14L2.5,140.17,14,120.25Z"/><path id="path1947" class="cls-3" d="M37,57.44l11.5,19.91L37,97.26H14L2.5,77.35,14,57.44Z"/><rect id="rect1964" class="cls-1" x="92.5" y="97.26" width="22.99" height="22.99"/><path id="path1966" class="cls-2" d="M131.55,81.2l22.91-.2L170.8,97.06,171,120l-16.06,16.34-22.91.2-16.34-16.06-.2-22.91Z"/><rect id="rect1968" class="cls-1" x="131.75" y="58.01" width="22.99" height="22.99"/><rect id="rect1970" class="cls-1" x="131.75" y="136.51" width="22.99" height="22.99"/><rect id="rect1974" class="cls-1" x="171" y="97.26" width="22.99" height="22.99"/><path id="path1976" class="cls-2" d="M210,81.2,233,81,249.3,97.06l.2,22.91-16.06,16.34-22.91.2-16.34-16.06L194,97.54Z"/><rect id="rect1978" class="cls-1" x="210.25" y="58.01" width="22.99" height="22.99"/><rect id="rect1980" class="cls-1" x="210.25" y="136.51" width="22.99" height="22.99"/><rect id="rect1984" class="cls-1" x="249.5" y="97.26" width="22.99" height="22.99"/><path id="path1986" class="cls-2" d="M288.55,81.2l22.91-.2L327.8,97.06,328,120l-16.06,16.34-22.91.2-16.34-16.06-.2-22.91Z"/><rect id="rect1988" class="cls-1" x="288.75" y="58.01" width="22.99" height="22.99"/><rect id="rect1990" class="cls-1" x="288.75" y="136.51" width="22.99" height="22.99"/><path id="path2008" class="cls-2" d="M131.55,159.7l22.91-.2,16.34,16.06.2,22.91-16.06,16.34L132,215,115.69,199l-.2-22.91Z"/><path id="path2010" class="cls-2" d="M131.55,2.7l22.91-.2L170.8,18.56l.2,22.91L154.94,57.81,132,58,115.69,42,115.49,19Z"/><path id="path2014" class="cls-3" d="M115.49,120.25,127,140.17l-11.5,19.91h-23L81,140.17l11.5-19.91Z"/><path id="path2016" class="cls-3" d="M115.49,57.44,127,77.35l-11.5,19.91h-23L81,77.35,92.5,57.44Z"/><path id="path2022" class="cls-3" d="M194,120.25l11.5,19.91L194,160.08H171l-11.5-19.91L171,120.25Z"/><path id="path2024" class="cls-3" d="M194,57.44l11.5,19.91L194,97.26H171L159.5,77.35,171,57.44Z"/><path id="path2030" class="cls-3" d="M272.49,120.25,284,140.17l-11.5,19.91h-23L238,140.17l11.5-19.91Z"/><path id="path2032" class="cls-3" d="M272.49,57.44,284,77.35l-11.5,19.91h-23L238,77.35l11.5-19.91Z"/></svg>