<svg id="Layer_1" data-name="Layer 1" xmlns="http://www.w3.org/2000/svg" viewBox="0 0 330 266"><defs><style>.cls-1{fill:#00a826;}.cls-1,.cls-2{stroke:#fff;stroke-linecap:round;stroke-linejoin:round;}.cls-2{fill:#ce001c;}</style></defs><title>truncated-icosahedron</title><path class="cls-1" d="M280.69,41.27l17.82,7.93-2,19.4-19.08,4.06-9.75-16.89Z"/><path class="cls-1" d="M119.49,93.23l2,19.4-17.82,7.93-13.05-14.5,9.75-16.89Z"/><path class="cls-1" d="M206.22,120.37l-17.82-7.93,2-19.4L209.51,89l9.75,16.89Z"/><path class="cls-1" d="M259.7,159.94l-15.78,11.47-15.78-11.47,6-18.55h19.51Z"/><path class="cls-1" d="M139,120.39l15.78-11.47,15.78,11.47-6,18.55H145.06Z"/><path class="cls-1" d="M115.7,54.6,99.92,66.06,84.14,54.6l6-18.55h19.51Z"/><path class="cls-2" d="M65.42,58.58,52.36,44.08l6-18.48,18.75-4L90.17,36l-6,18.55Z"/><path class="cls-2" d="M209.41,163.92l-13.05-14.5,6-18.48,18.75-4,13.05,14.5-6,18.55Z"/><path class="cls-2" d="M267.82,89.24H248.31L238.59,72.4l9.54-16.64h19.51l9.75,16.89Z"/><path class="cls-2" d="M152.75,89.55l2,19.4-15.72,11.42-17.55-7.74-2-19.4,15.78-11.47Z"/><path class="cls-2" d="M68.69,89.14l-2-19.4L82.38,58.32l17.55,7.74,2,19.4L86.18,96.93Z"/><path class="cls-2" d="M238.75,105.85H219.25L209.53,89l9.54-16.64h19.51l9.75,16.89Z"/><path class="cls-2" d="M133.2,62.38l2,19.4L119.52,93.21,102,85.46l-2-19.4L115.71,54.6Z"/><path class="cls-2" d="M177.62,153.44l-13.05-14.5,6-18.48,18.75-4,13.05,14.5-6,18.55Z"/><path class="cls-1" d="M113.21,149.1l19.08,4.06,2,19.4-17.82,7.93L103.45,166Z"/><path class="cls-1" d="M75.31,140.75l6,18.55L65.55,170.76,49.77,159.3l6-18.55Z"/><path class="cls-2" d="M63.54,189.8l-17.82,7.93L30,186.31l1.94-19.08,17.82-7.93,15.78,11.47Z"/><path class="cls-2" d="M120,116.32l19.08,4.06,6,18.48-12.79,14.29-19.08-4.06-6-18.55Z"/><path class="cls-2" d="M93.62,196.13l-19.08-4.06-6-18.48L81.32,159.3l19.08,4.06,6,18.55Z"/><path class="cls-2" d="M88.1,126.52l19.08,4.06,6,18.48L100.4,163.35,81.32,159.3l-6-18.55Z"/><path class="cls-1" d="M164.37,172.36l9.75-16.89,19.08,4.06,2,19.4-17.82,7.93Z"/><path class="cls-1" d="M144.73,205.83h19.51l6,18.55-15.78,11.47L138.7,224.38Z"/><path class="cls-2" d="M187.74,232.18l2,19.4L174.06,263l-17.55-7.74-2-19.4,15.78-11.47Z"/><path class="cls-2" d="M135.29,155.78,145,138.89h19.44l9.64,16.58-9.75,16.89H144.86Z"/><path class="cls-2" d="M203.06,205.52l-9.75,16.89H173.87l-9.64-16.58L174,188.94h19.51Z"/><path class="cls-2" d="M135.15,189.25l9.75-16.89h19.44L174,188.94l-9.75,16.89H144.72Z"/><path class="cls-1" d="M174.61,81.93l-17.82,7.93-13.05-14.5,9.75-16.89,19.08,4.06Z"/><path class="cls-1" d="M210.19,66.41,194.41,54.94l6-18.55h19.51l6,18.55Z"/><path class="cls-2" d="M190.86,19.81l9.75-16.89h19.44l9.64,16.58-9.75,16.89H200.44Z"/><path class="cls-2" d="M188.39,112.44l-17.82,7.93-15.72-11.42,1.94-19.08,17.82-7.93L190.39,93.4Z"/><path class="cls-2" d="M162.81,32.37l17.82-7.93,15.72,11.42-1.94,19.08-17.82,7.93L160.81,51.41Z"/><path class="cls-2" d="M208.19,85.44l-17.82,7.93L174.64,82l1.94-19.08,17.82-7.93L210.19,66.4Z"/></svg>