<svg id="Layer_1" data-name="Layer 1" xmlns="http://www.w3.org/2000/svg" viewBox="0 0 330 248"><defs><style>.cls-1{fill:#ff710e;}.cls-1,.cls-2,.cls-3{stroke:#fff;stroke-linecap:round;stroke-linejoin:round;}.cls-2{fill:#0095ff;}.cls-3{fill:#ce001c;}</style></defs><title>truncated-icosidodecahedron</title><path class="cls-1" d="M175,134.47l-9.77-9.58-2.27-13.49L169,99.15l12.13-6.33,13.53,2,9.77,9.58,2.27,13.49-6.1,12.25-12.13,6.33-13.53-2"/><path class="cls-1" d="M220.46,53.62l-.59,13.67L211.37,78l-13.18,3.67-12.82-4.78-7.56-11.4.59-13.67,8.51-10.71,13.18-3.67,12.82,4.78,7.56,11.4"/><path class="cls-1" d="M263,105.2l-.59,13.67-8.51,10.71-13.18,3.67-12.82-4.78-7.56-11.4.59-13.67,8.51-10.71L242.65,89l12.82,4.78L263,105.2"/><path class="cls-1" d="M284.09,64.19l13.65-.85,11.54,7.34,5,12.73L310.9,96.66l-10.55,8.71-13.65.85-11.54-7.34-5-12.73,3.42-13.25,10.55-8.71"/><path class="cls-1" d="M218,186.1l-13.18,3.67L192,185l-7.56-11.4.59-13.67,8.51-10.71,13.18-3.67,12.82,4.78,7.56,11.4-.59,13.67L218,186.1"/><path class="cls-1" d="M268.51,206.19l-3.42,13.25-10.55,8.71-13.65.85-11.54-7.34-5-12.73,3.42-13.25L238.29,187l13.65-.85,11.54,7.34,5,12.73"/><path class="cls-1" d="M153.12,169.38,139.94,173l-12.82-4.78-7.56-11.4.59-13.67,8.51-10.71,13.18-3.67,12.82,4.78,7.56,11.4-.59,13.67-8.51,10.71"/><path class="cls-1" d="M137.59,200.57l-3.42,13.25-10.55,8.71-13.65.85L98.43,216l-5-12.73,3.42-13.25,10.55-8.71,13.65-.85,11.54,7.34,5,12.73"/><path class="cls-1" d="M153.53,93.37l-3.42,13.25-10.55,8.71-13.65.85-11.54-7.34-5-12.73,3.42-13.25,10.55-8.71L137,73.3l11.54,7.34,5,12.73"/><path class="cls-1" d="M68.67,102.63,81.85,99l12.82,4.78,7.56,11.4-.59,13.67-8.51,10.71L80,143.2l-12.82-4.78L59.58,127l.59-13.67,8.51-10.71"/><path class="cls-1" d="M2.44,114.06l3.42-13.25,10.55-8.71,13.65-.85L41.61,98.6l5,12.73-3.42,13.25-10.55,8.71L19,134.13,7.47,126.79l-5-12.73"/><path class="cls-1" d="M90.08,67.06l-9.77-9.58L78,44l6.1-12.25,12.13-6.33,13.53,2L119.57,37l2.27,13.49-6.1,12.25-12.13,6.33-13.53-2"/><path class="cls-2" d="M183.16,79.29l-2,13.53,13.53,2,2-13.53Z"/><path class="cls-2" d="M206.72,117.9l13.49-2.27-2.27-13.49-13.49,2.27Z"/><path class="cls-2" d="M188.49,136.48l6.33,12.13,12.13-6.33-6.33-12.13Z"/><path class="cls-2" d="M165.38,144.24l9.58-9.77-9.77-9.58-9.58,9.77Z"/><path class="cls-2" d="M169,99.15l-12.25-6.1-6.1,12.25,12.25,6.09Z"/><path class="cls-2" d="M221.14,87.59l9.58-9.77L221,68.24,211.38,78Z"/><path class="cls-2" d="M224.31,34.66l-11.4,7.56,7.56,11.4,11.4-7.56Z"/><path class="cls-2" d="M183.24,27.92,186.9,41.1l13.18-3.67-3.67-13.18Z"/><path class="cls-2" d="M221.19,20,226,7.2,213.15,2.42l-4.78,12.82Z"/><path class="cls-2" d="M240.19,134.56l-12.25-6.1-6.1,12.25,12.25,6.1Z"/><path class="cls-2" d="M266.87,86.23l-11.4,7.56L263,105.2l11.4-7.56Z"/><path class="cls-2" d="M286.12,119.88l13.67.59.59-13.67-13.67-.59Z"/><path class="cls-2" d="M327.57,86.82l-13.25-3.42-3.42,13.25,13.25,3.42Z"/><path class="cls-2" d="M171.47,157.91l-2,13.53,13.53,2,2-13.53Z"/><path class="cls-2" d="M237.21,183.89l-10.71-8.51L218,186.1l10.71,8.51Z"/><path class="cls-2" d="M192,185,187.2,197.8,200,202.58l4.78-12.82Z"/><path class="cls-2" d="M211.16,212.59l3.67,13.18L228,222.11l-3.67-13.18Z"/><path class="cls-2" d="M240.91,229l.85,13.65,13.65-.85-.85-13.65Z"/><path class="cls-2" d="M128.34,131.08l13.49-2.27-2.27-13.49-13.49,2.27Z"/><path class="cls-2" d="M135.15,185.85,139.93,173l-12.82-4.78-4.78,12.82Z"/><path class="cls-2" d="M120.14,143.19l-13.67-.59-.59,13.67,13.67.59Z"/><path class="cls-2" d="M99.81,170l-11.4,7.56L96,188.91l11.4-7.56Z"/><path class="cls-2" d="M85.7,221.06l12.73-5-5-12.72-12.73,5Z"/><path class="cls-2" d="M101.64,113.85l12.73-5-5-12.73-12.73,5Z"/><path class="cls-2" d="M123.3,74.14l-8.71-10.55L104,72.3l8.71,10.55Z"/><path class="cls-2" d="M89.81,76.94,76.56,73.52,73.15,86.77l13.25,3.42Z"/><path class="cls-2" d="M60.17,113.35l-13.67-.59-.59,13.67,13.67.59Z"/><path class="cls-2" d="M65.8,37.89,78,44l6.1-12.25L71.9,25.64Z"/><path class="cls-3" d="M221.14,87.59l-3.42,13.25-13.18,3.67-9.77-9.58,3.42-13.25L211.38,78l9.77,9.58"/><path class="cls-3" d="M221.85,140.71l-13.65.85-7.56-11.4,6.1-12.25,13.65-.85,7.56,11.4-6.1,12.25"/><path class="cls-3" d="M171.47,157.91l-5-12.73L175,134.47l13.53,2,5,12.73L185,159.92l-13.53-2"/><path class="cls-3" d="M165.2,124.89l-10.55,8.71-12.82-4.78-2.27-13.49,10.55-8.71,12.82,4.78,2.27,13.49"/><path class="cls-3" d="M169,99.15,157.48,91.8l.59-13.67,12.13-6.33,11.54,7.34-.59,13.67L169,99.15"/><path class="cls-3" d="M200.09,37.44l-2.27-13.49,10.55-8.71L221.19,20l2.27,13.49-10.55,8.71-12.82-4.78"/><path class="cls-3" d="M242.64,89l-2.27-13.49,10.55-8.71,12.82,4.78L266,85.08l-10.55,8.71L242.64,89"/><path class="cls-3" d="M286.12,119.88,274,126.21l-11.54-7.34L263,105.2l12.13-6.33,11.54,7.34-.59,13.67"/><path class="cls-3" d="M227.08,161.72l12.13-6.33,11.54,7.34-.59,13.67L238,182.73l-11.54-7.34.59-13.67"/><path class="cls-3" d="M211.16,212.59,201.39,203l3.42-13.25L218,186.1l9.77,9.58-3.42,13.25-13.18,3.67"/><path class="cls-3" d="M277.92,224.22l2.27,13.49-10.55,8.71-12.82-4.78-2.27-13.49,10.55-8.71,12.82,4.78"/><path class="cls-3" d="M153.12,169.38l9.77,9.58-3.42,13.25-13.18,3.67-9.77-9.58L139.94,173l13.18-3.67"/><path class="cls-3" d="M99.81,170l6.1-12.25,13.65-.85,7.56,11.4L121,180.51l-13.65.85L99.81,170"/><path class="cls-3" d="M86.29,222.37,98.42,216,110,223.38l-.59,13.67-12.13,6.33L85.71,236l.59-13.67"/><path class="cls-3" d="M101.65,128.81l.59-13.67,12.13-6.33,11.54,7.34-.59,13.67-12.13,6.33-11.54-7.34"/><path class="cls-3" d="M109.34,96.1,96.16,99.77l-9.77-9.58,3.42-13.25L103,73.27l9.77,9.58L109.34,96.1"/><path class="cls-3" d="M123.3,74.14l-7.56-11.4,6.1-12.25,13.65-.85L143.05,61,137,73.3l-13.65.85"/><path class="cls-3" d="M67.14,138.41,61,150.66l-13.65.85-7.56-11.4,6.1-12.25L59.58,127l7.56,11.4"/><path class="cls-3" d="M60.17,113.35l-13.53-2-5-12.73L50.12,87.9l13.53,2,5,12.73-8.51,10.71"/><path class="cls-3" d="M96.86,11.74l-.59,13.67L84.15,31.74,72.6,24.39l.59-13.67L85.32,4.4l11.54,7.34"/><path class="cls-2" d="M262.44,118.86l-8.51,10.71,10.71,8.51,8.51-10.71Z"/><path class="cls-2" d="M151.74,66l6.33,12.13,12.13-6.33-6.33-12.13Z"/></svg>