<svg id="Layer_1" data-name="Layer 1" xmlns="http://www.w3.org/2000/svg" viewBox="0 0 330 188"><defs><style>.cls-1{fill:#ce001c;}.cls-1,.cls-2{stroke:#fff;stroke-miterlimit:1;}.cls-2{fill:#0095ff;}</style></defs><title>truncated-octahedron</title><path id="use2416-9" class="cls-1" d="M70,57.2V20.8L38.5,2.6,7,20.8V57.2L38.51,75.4Z"/><path id="use2420-1" class="cls-1" d="M101.53,111.8V75.4L70,57.2,38.51,75.4v36.4L70,130Z"/><path id="use2422-8" class="cls-1" d="M164.55,111.8V75.4L133,57.2,101.53,75.4v36.4L133,130Z"/><path id="path2424-1" class="cls-1" d="M70,166.38V130l-31.52-18.2L7,130v36.39l31.52,18.2Z"/><rect id="rect8" class="cls-2" x="76.68" y="118.45" width="36.42" height="36.41" transform="translate(-55.61 65.75) rotate(-30)"/><rect id="rect10" class="cls-2" x="2.1" y="75.38" width="36.41" height="36.42"/><rect id="rect12" class="cls-2" x="76.68" y="32.33" width="36.42" height="36.41" transform="translate(3.68 107.44) rotate(-60)"/><path id="use2416-9-0" class="cls-1" d="M232.47,57.21V20.81L201,2.61l-31.51,18.2V57.2L201,75.4Z"/><path id="use2420-1-6" class="cls-1" d="M264,111.8V75.41l-31.51-18.2L201,75.4v36.4L232.47,130Z"/><path id="use2422-8-6" class="cls-1" d="M327,111.8V75.41l-31.51-18.2L264,75.41v36.4L295.49,130Z"/><path id="path2424-1-4" class="cls-1" d="M232.47,166.39V130L201,111.8,169.44,130v36.39L201,184.58Z"/><rect id="rect8-6" class="cls-2" x="239.13" y="118.45" width="36.42" height="36.41" transform="translate(-33.85 146.98) rotate(-30)"/><rect id="rect10-2" class="cls-2" x="164.55" y="75.38" width="36.41" height="36.42"/><rect id="rect12-8" class="cls-2" x="239.13" y="32.34" width="36.42" height="36.41" transform="translate(84.9 248.13) rotate(-60)"/></svg>